<?xml version="1.0" encoding="utf-8"?>
<!-- Generator: Adobe Illustrator 25.4.1, SVG Export Plug-In . SVG Version: 6.00 Build 0)  -->
<svg version="1.1" id="Layer_1" xmlns="http://www.w3.org/2000/svg" xmlns:xlink="http://www.w3.org/1999/xlink" x="0px" y="0px"
	 viewBox="0 0 128.7 30" style="enable-background:new 0 0 128.7 30;" xml:space="preserve">
<path d="M101.9,10.1H91.6c-2.7,0-4.8,2.2-4.8,4.9v10.2c0,2.7,2.1,4.8,4.8,4.9h10.3c2.7,0,4.8-2.2,4.8-4.9V14.9
	C106.7,12.3,104.6,10.1,101.9,10.1z M103.7,16.2v7.5c0,1.7-1.3,3.1-3.1,3.2h-7.7c-1.7,0-3.1-1.5-3.1-3.2v-7.5c0-1.7,1.3-3.1,3-3.2
	h7.7C102.3,13.1,103.7,14.5,103.7,16.2C103.7,16.2,103.7,16.3,103.7,16.2z M123.7,10h-10.3c-2.7,0.1-4.8,2.3-4.8,4.9v10.2
	c0,2.7,2.1,4.8,4.8,4.9h10.3c2.7,0,4.8-2.2,4.8-4.9V14.9C128.5,12.3,126.4,10.1,123.7,10z M125.4,16.2v7.5c0,1.7-1.3,3.1-3,3.2h-7.7
	c-1.7,0-3.1-1.5-3.1-3.2v-7.5c0-1.7,1.3-3.1,3.1-3.2h7.7C124.1,13.2,125.5,14.6,125.4,16.2z M36.6,10H26.3c-2.7,0.1-4.8,2.3-4.8,4.9
	v10.2c0,2.7,2.1,4.8,4.8,4.9h10.3c2.7,0,4.8-2.2,4.8-4.9V14.9C41.4,12.3,39.3,10.1,36.6,10z M38.4,16.2v7.5c0,1.7-1.3,3.1-3.1,3.2
	h-7.6c-1.7,0-3.1-1.4-3.1-3.2v-7.5c0-1.7,1.3-3.1,3.1-3.2h7.7C37,13.1,38.4,14.5,38.4,16.2C38.4,16.3,38.4,16.3,38.4,16.2z M58.4,10
	H48.1c-2.7,0.1-4.8,2.3-4.8,4.9v10.2c0,2.7,2.1,4.8,4.8,4.9h10.3c2.7,0,4.8-2.2,4.8-4.9V14.9C63.2,12.3,61,10.1,58.4,10z M60.1,16.2
	v7.5c0,1.7-1.3,3.1-3.1,3.2h-7.7c-1.7,0-3.1-1.5-3.1-3.2v-7.5c0-1.7,1.3-3.1,3-3.2H57C58.8,13.1,60.1,14.5,60.1,16.2
	C60.1,16.2,60.1,16.3,60.1,16.2z M80,10H69.6c-0.6,0-1.2,0.1-1.7,0.4V0h-3v25.1c0,2.7,2.1,4.9,4.8,4.9H80c2.7,0,4.8-2.2,4.8-4.9
	V14.8C84.8,12.2,82.7,10,80,10z M81.7,16.2v7.5c0,1.7-1.3,3.1-3.1,3.2H71c-1.7,0-3.1-1.5-3.1-3.2v-7.5c0-1.7,1.4-3.1,3.1-3.2h7.7
	C80.4,13.1,81.8,14.5,81.7,16.2z M15,10H4.6C4,10,3.5,10.1,3,10.4V0.1H0V30h3v-0.2L2.9,16.4c0-1.7,1.4-3.1,3.1-3.1h7.7
	c1.7,0,3.1,1.5,3.1,3.2V30h3V15C19.8,12.3,17.7,10.1,15,10z"/>
</svg>
