<?xml version="1.0" encoding="utf-8"?>
<!-- Generator: Adobe Illustrator 25.4.1, SVG Export Plug-In . SVG Version: 6.00 Build 0)  -->
<svg version="1.1" id="Layer_1" xmlns="http://www.w3.org/2000/svg" xmlns:xlink="http://www.w3.org/1999/xlink" x="0px" y="0px"
	 viewBox="0 0 326.6 35" style="enable-background:new 0 0 326.6 35;" xml:space="preserve">
<style type="text/css">
	.st0{fill:#262525;}
</style>
<polygon class="st0" points="0,5.9 14.3,5.9 14.3,33.8 21.3,33.8 21.3,5.9 35.6,5.9 35.6,0 0,0 "/>
<polygon class="st0" points="170.5,24.6 145.4,0 138.4,0 138.4,33.8 145.4,33.8 145.4,9.3 170.5,33.8 177.5,33.8 177.5,0 170.5,0 
	"/>
<polygon class="st0" points="263.5,27.7 252,0 244.3,0 259.2,33.8 267.9,33.8 282.6,0 275.1,0 "/>
<path class="st0" d="M70.1,15.8h-7.3h-8.7V6h8.7h7.3c3.5,0,6,1.5,6,4.6C76.1,13.9,73.6,15.8,70.1,15.8 M83,10.2
	C83,3.1,77.9,0,70.1,0H47.2v3.4h-0.1v22.9h0.1v7.4h6.9v-7.4v-5h12.8c5.5,0,8.5,1,8.5,4.9l0,7.6h6.9v-8c0-4.8-2.5-6.2-7.8-6.7
	C79.4,18.3,83,15.9,83,10.2"/>
<path class="st0" d="M313.7,15.8h-5.5h-10.4V6h10.4h5.5c3.5,0,6,1.5,6,4.6C319.6,13.9,317.2,15.8,313.7,15.8 M318.1,19.1
	c4.8-0.8,8.5-3.1,8.5-8.8c0-7.1-5.2-10.2-13-10.2h-22.9v0.9V6v9.8v7.4v10.5h6.9V23.3v-2h12.8c5.5,0,8.5,1,8.5,4.9l0,7.6h6.9v-8
	C325.9,20.9,323.4,19.5,318.1,19.1"/>
<path class="st0" d="M207.2,27.7H195V6h12.2c10,0,12.9,5,12.9,10.8C220.1,22.5,217.2,27.7,207.2,27.7 M207.4,0H188v33.8h19.3
	c14.5,0,19.8-8,19.8-17C227.1,7.8,222.6,0,207.4,0"/>
<rect x="94.3" class="st0" width="33" height="5.8"/>
<rect x="94.3" y="29.2" class="st0" width="33" height="5.8"/>
<rect x="94.3" y="14.6" class="st0" width="33" height="5.8"/>
</svg>
